<svg xmlns="http://www.w3.org/2000/svg" width="16.8" height="24" viewBox="0 0 14.55 20.78" shape-rendering="geometricPrecision" text-rendering="geometricPrecision" image-rendering="optimizeQuality" fill-rule="evenodd" clip-rule="evenodd"><defs><style>.fil0{fill:#228cff;fill-rule:nonzero}</style></defs><g id="Capa_x0020_1"><g id="_2652799776288"><path class="fil0" d="M11.2 3.95H3.36c-.46 0-.84.38-.84.84v11.2c0 .46.38.84.84.84h7.84c.46 0 .84-.38.84-.84V4.79c0-.46-.38-.84-.84-.84zM11.48 16c0 .15-.13.28-.28.28H3.36c-.15 0-.28-.13-.28-.28v-.87h.51c.15 0 .28-.13.28-.28 0-.15-.13-.28-.28-.28h-.51v-.58h.51c.15 0 .28-.13.28-.28 0-.15-.13-.28-.28-.28h-.51v-.58h.51c.15 0 .28-.13.28-.28 0-.15-.13-.28-.28-.28h-.51V7.68h.51c.15 0 .28-.13.28-.28 0-.15-.13-.28-.28-.28h-.51V4.79c0-.15.13-.28.28-.28h7.84c.15 0 .28.13.28.28v11.2z"/><path class="fil0" d="M4.22 5.24c-.23 0-.42.19-.42.42 0 .23.19.42.42.42.23 0 .42-.19.42-.42 0-.23-.19-.42-.42-.42zM10.33 5.24c-.23 0-.42.19-.42.42 0 .23.19.42.42.42.23 0 .42-.19.42-.42 0-.23-.19-.42-.42-.42zM9.88 14.59H5.4c-.15 0-.28.13-.28.28 0 .15.13.28.28.28h4.48c.15 0 .28-.13.28-.28 0-.15-.13-.28-.28-.28zM9.88 13.42H5.4c-.15 0-.28.13-.28.28 0 .15.13.28.28.28h4.48c.15 0 .28-.13.28-.28 0-.15-.13-.28-.28-.28zM9.32 7.12H5.96c-.46 0-.84.38-.84.84v3.36c0 .46.38.84.84.84h3.36c.46 0 .84-.38.84-.84V7.96c0-.46-.38-.84-.84-.84zm.28 4.2c0 .15-.13.28-.28.28H5.96c-.15 0-.28-.13-.28-.28V7.96c0-.15.13-.28.28-.28h3.36c.15 0 .28.13.28.28v3.36z"/></g><path fill="none" d="M0 0h14.55v20.78H0z"/></g></svg>